<mxfile host="app.diagrams.net" agent="Mozilla/5.0 (Windows NT 10.0; Win64; x64) AppleWebKit/537.36 (KHTML, like Gecko) Chrome/131.0.0.0 Safari/537.36" version="26.0.2">
  <diagram name="Page-1" id="oh81rue0kW5gKm1ECXpZ">
    <mxGraphModel dx="2079" dy="1597" grid="1" gridSize="10" guides="1" tooltips="1" connect="1" arrows="1" fold="1" page="1" pageScale="1" pageWidth="850" pageHeight="1100" math="0" shadow="0">
      <root>
        <mxCell id="0" />
        <mxCell id="1" parent="0" />
        <mxCell id="QN-ZKGfzIM9sbQY_N0U2-22" style="edgeStyle=orthogonalEdgeStyle;rounded=0;orthogonalLoop=1;jettySize=auto;html=1;entryX=0.5;entryY=0;entryDx=0;entryDy=0;strokeWidth=2;endArrow=none;endFill=0;" parent="1" source="QN-ZKGfzIM9sbQY_N0U2-1" target="QN-ZKGfzIM9sbQY_N0U2-19" edge="1">
          <mxGeometry relative="1" as="geometry">
            <Array as="points">
              <mxPoint x="330" y="290" />
            </Array>
          </mxGeometry>
        </mxCell>
        <mxCell id="QN-ZKGfzIM9sbQY_N0U2-23" style="edgeStyle=orthogonalEdgeStyle;rounded=0;orthogonalLoop=1;jettySize=auto;html=1;entryX=0.5;entryY=0;entryDx=0;entryDy=0;endArrow=none;endFill=0;strokeWidth=2;" parent="1" source="QN-ZKGfzIM9sbQY_N0U2-1" target="QN-ZKGfzIM9sbQY_N0U2-19" edge="1">
          <mxGeometry relative="1" as="geometry">
            <Array as="points">
              <mxPoint x="340" y="290" />
            </Array>
          </mxGeometry>
        </mxCell>
        <mxCell id="QN-ZKGfzIM9sbQY_N0U2-1" value="&lt;b&gt;&lt;font color=&quot;#000000&quot; style=&quot;font-size: 16px;&quot;&gt;Person&lt;/font&gt;&lt;/b&gt;" style="rounded=0;whiteSpace=wrap;html=1;fillColor=#FFDC2E;strokeColor=#FFDC2E;gradientColor=none;strokeWidth=2;gradientDirection=radial;" parent="1" vertex="1">
          <mxGeometry x="240" y="200" width="190" height="30" as="geometry" />
        </mxCell>
        <mxCell id="QN-ZKGfzIM9sbQY_N0U2-3" style="edgeStyle=orthogonalEdgeStyle;rounded=0;orthogonalLoop=1;jettySize=auto;html=1;entryX=0.75;entryY=0;entryDx=0;entryDy=0;strokeWidth=2;endArrow=none;endFill=0;" parent="1" source="QN-ZKGfzIM9sbQY_N0U2-2" target="QN-ZKGfzIM9sbQY_N0U2-1" edge="1">
          <mxGeometry relative="1" as="geometry" />
        </mxCell>
        <mxCell id="QN-ZKGfzIM9sbQY_N0U2-2" value="&lt;font style=&quot;font-size: 16px;&quot; color=&quot;#000000&quot;&gt;&lt;b&gt;Name&lt;/b&gt;&lt;/font&gt;" style="ellipse;whiteSpace=wrap;html=1;fillColor=#FFDC2E;gradientColor=none;strokeColor=#FFDC2E;" parent="1" vertex="1">
          <mxGeometry x="380" y="110" width="70" height="50" as="geometry" />
        </mxCell>
        <mxCell id="QN-ZKGfzIM9sbQY_N0U2-6" style="edgeStyle=orthogonalEdgeStyle;rounded=0;orthogonalLoop=1;jettySize=auto;html=1;entryX=1;entryY=0.5;entryDx=0;entryDy=0;endArrow=none;endFill=0;strokeWidth=2;" parent="1" source="QN-ZKGfzIM9sbQY_N0U2-4" target="QN-ZKGfzIM9sbQY_N0U2-2" edge="1">
          <mxGeometry relative="1" as="geometry">
            <Array as="points">
              <mxPoint x="500" y="135" />
            </Array>
          </mxGeometry>
        </mxCell>
        <mxCell id="QN-ZKGfzIM9sbQY_N0U2-4" value="&lt;font color=&quot;#000000&quot;&gt;&lt;span style=&quot;font-size: 16px;&quot;&gt;&lt;b&gt;F_Name&lt;/b&gt;&lt;/span&gt;&lt;/font&gt;" style="ellipse;whiteSpace=wrap;html=1;fillColor=#FFDC2E;gradientColor=none;strokeColor=#FFDC2E;" parent="1" vertex="1">
          <mxGeometry x="470" y="40" width="70" height="50" as="geometry" />
        </mxCell>
        <mxCell id="QN-ZKGfzIM9sbQY_N0U2-8" style="edgeStyle=orthogonalEdgeStyle;rounded=0;orthogonalLoop=1;jettySize=auto;html=1;entryX=0;entryY=0.5;entryDx=0;entryDy=0;strokeWidth=2;endArrow=none;endFill=0;" parent="1" source="QN-ZKGfzIM9sbQY_N0U2-7" target="QN-ZKGfzIM9sbQY_N0U2-2" edge="1">
          <mxGeometry relative="1" as="geometry">
            <Array as="points">
              <mxPoint x="370" y="135" />
            </Array>
          </mxGeometry>
        </mxCell>
        <mxCell id="QN-ZKGfzIM9sbQY_N0U2-7" value="&lt;font style=&quot;font-size: 16px;&quot; color=&quot;#000000&quot;&gt;&lt;b&gt;L_Name&lt;/b&gt;&lt;/font&gt;" style="ellipse;whiteSpace=wrap;html=1;fillColor=#FFDC2E;gradientColor=none;strokeColor=#FFDC2E;" parent="1" vertex="1">
          <mxGeometry x="340" y="40" width="70" height="50" as="geometry" />
        </mxCell>
        <mxCell id="QN-ZKGfzIM9sbQY_N0U2-10" style="edgeStyle=orthogonalEdgeStyle;rounded=0;orthogonalLoop=1;jettySize=auto;html=1;entryX=0.25;entryY=0;entryDx=0;entryDy=0;strokeWidth=2;endArrow=none;endFill=0;" parent="1" source="QN-ZKGfzIM9sbQY_N0U2-9" target="QN-ZKGfzIM9sbQY_N0U2-1" edge="1">
          <mxGeometry relative="1" as="geometry" />
        </mxCell>
        <mxCell id="QN-ZKGfzIM9sbQY_N0U2-9" value="&lt;font color=&quot;#000000&quot; style=&quot;font-size: 16px;&quot;&gt;&lt;b style=&quot;&quot;&gt;&lt;u style=&quot;&quot;&gt;ssn&lt;/u&gt;&lt;/b&gt;&lt;/font&gt;" style="ellipse;whiteSpace=wrap;html=1;fillColor=#FFDC2E;gradientColor=none;strokeColor=#FFDC2E;" parent="1" vertex="1">
          <mxGeometry x="220" y="90" width="70" height="50" as="geometry" />
        </mxCell>
        <mxCell id="yGeFEJMInWNtsbP3KPp0-82" value="" style="edgeStyle=orthogonalEdgeStyle;rounded=0;orthogonalLoop=1;jettySize=auto;html=1;strokeWidth=2;endArrow=none;endFill=0;startArrow=ERzeroToOne;startFill=0;shadow=0;flowAnimation=0;jumpSize=6;jumpStyle=none;targetPerimeterSpacing=0;sourcePerimeterSpacing=0;endSize=6;startSize=12;strokeColor=#FF3333;" parent="1" source="QN-ZKGfzIM9sbQY_N0U2-13" target="yGeFEJMInWNtsbP3KPp0-81" edge="1">
          <mxGeometry relative="1" as="geometry" />
        </mxCell>
        <mxCell id="yGeFEJMInWNtsbP3KPp0-154" style="edgeStyle=orthogonalEdgeStyle;shape=connector;rounded=0;orthogonalLoop=1;jettySize=auto;html=1;exitX=0.75;exitY=0;exitDx=0;exitDy=0;entryX=0.5;entryY=0;entryDx=0;entryDy=0;strokeColor=#FF3333;strokeWidth=2;align=center;verticalAlign=middle;fontFamily=Helvetica;fontSize=11;fontColor=default;labelBackgroundColor=default;startSize=12;endArrow=none;endFill=0;endSize=12;startArrow=ERzeroToOne;startFill=0;" parent="1" source="QN-ZKGfzIM9sbQY_N0U2-13" target="yGeFEJMInWNtsbP3KPp0-152" edge="1">
          <mxGeometry relative="1" as="geometry">
            <Array as="points">
              <mxPoint x="738" y="20" />
              <mxPoint x="-50" y="20" />
            </Array>
          </mxGeometry>
        </mxCell>
        <mxCell id="9oTaQcb-Jof8NQnY-Mon-13" style="edgeStyle=orthogonalEdgeStyle;rounded=0;orthogonalLoop=1;jettySize=auto;html=1;exitX=0.5;exitY=1;exitDx=0;exitDy=0;entryX=0;entryY=0.5;entryDx=0;entryDy=0;strokeWidth=2;endArrow=none;endFill=0;" parent="1" source="QN-ZKGfzIM9sbQY_N0U2-13" target="9oTaQcb-Jof8NQnY-Mon-12" edge="1">
          <mxGeometry relative="1" as="geometry">
            <Array as="points">
              <mxPoint x="705" y="290" />
              <mxPoint x="741" y="290" />
            </Array>
          </mxGeometry>
        </mxCell>
        <mxCell id="QN-ZKGfzIM9sbQY_N0U2-13" value="&lt;b&gt;&lt;font color=&quot;#000000&quot; style=&quot;font-size: 16px;&quot;&gt;Customer&lt;/font&gt;&lt;/b&gt;" style="rounded=0;whiteSpace=wrap;html=1;fillColor=#FFDC2E;strokeColor=#FFDC2E;gradientColor=none;strokeWidth=2;gradientDirection=radial;" parent="1" vertex="1">
          <mxGeometry x="640" y="190" width="130" height="30" as="geometry" />
        </mxCell>
        <mxCell id="yGeFEJMInWNtsbP3KPp0-77" style="edgeStyle=orthogonalEdgeStyle;rounded=0;orthogonalLoop=1;jettySize=auto;html=1;exitX=0.75;exitY=0;exitDx=0;exitDy=0;entryX=0.5;entryY=1;entryDx=0;entryDy=0;strokeWidth=2;endArrow=none;endFill=0;" parent="1" source="QN-ZKGfzIM9sbQY_N0U2-17" target="QN-ZKGfzIM9sbQY_N0U2-19" edge="1">
          <mxGeometry relative="1" as="geometry" />
        </mxCell>
        <mxCell id="XxHLsqreGXPtytjsFbVA-2" style="edgeStyle=orthogonalEdgeStyle;rounded=0;orthogonalLoop=1;jettySize=auto;html=1;entryX=0.5;entryY=0;entryDx=0;entryDy=0;endArrow=classic;endFill=1;" parent="1" source="QN-ZKGfzIM9sbQY_N0U2-17" target="XxHLsqreGXPtytjsFbVA-1" edge="1">
          <mxGeometry relative="1" as="geometry" />
        </mxCell>
        <mxCell id="QN-ZKGfzIM9sbQY_N0U2-17" value="&lt;font color=&quot;#000000&quot;&gt;&lt;span style=&quot;font-size: 16px;&quot;&gt;&lt;b&gt;Employee&lt;/b&gt;&lt;/span&gt;&lt;/font&gt;" style="rounded=0;whiteSpace=wrap;html=1;fillColor=#FFDC2E;strokeColor=#FFDC2E;gradientColor=none;strokeWidth=2;gradientDirection=radial;" parent="1" vertex="1">
          <mxGeometry x="80" y="410" width="130" height="30" as="geometry" />
        </mxCell>
        <mxCell id="9oTaQcb-Jof8NQnY-Mon-3" style="edgeStyle=orthogonalEdgeStyle;rounded=0;orthogonalLoop=1;jettySize=auto;html=1;entryX=1;entryY=0.5;entryDx=0;entryDy=0;" parent="1" source="QN-ZKGfzIM9sbQY_N0U2-19" target="9oTaQcb-Jof8NQnY-Mon-2" edge="1">
          <mxGeometry relative="1" as="geometry">
            <Array as="points">
              <mxPoint x="190" y="305" />
              <mxPoint x="190" y="185" />
            </Array>
          </mxGeometry>
        </mxCell>
        <mxCell id="QN-ZKGfzIM9sbQY_N0U2-19" value="&lt;font color=&quot;#000000&quot; style=&quot;font-size: 15px;&quot;&gt;&lt;b&gt;d&lt;/b&gt;&lt;/font&gt;" style="ellipse;whiteSpace=wrap;html=1;strokeWidth=2;strokeColor=#FFDC2E;fillColor=#FFDC2E;" parent="1" vertex="1">
          <mxGeometry x="320" y="290" width="30" height="30" as="geometry" />
        </mxCell>
        <mxCell id="QN-ZKGfzIM9sbQY_N0U2-26" style="edgeStyle=orthogonalEdgeStyle;rounded=0;orthogonalLoop=1;jettySize=auto;html=1;entryX=0.454;entryY=-0.033;entryDx=0;entryDy=0;entryPerimeter=0;strokeWidth=2;endArrow=none;endFill=0;" parent="1" source="QN-ZKGfzIM9sbQY_N0U2-19" target="QN-ZKGfzIM9sbQY_N0U2-13" edge="1">
          <mxGeometry relative="1" as="geometry" />
        </mxCell>
        <mxCell id="yGeFEJMInWNtsbP3KPp0-125" style="edgeStyle=orthogonalEdgeStyle;shape=connector;rounded=0;orthogonalLoop=1;jettySize=auto;html=1;exitX=0;exitY=0;exitDx=0;exitDy=0;strokeColor=default;strokeWidth=2;align=center;verticalAlign=middle;fontFamily=Helvetica;fontSize=11;fontColor=default;labelBackgroundColor=default;startSize=6;endArrow=none;endFill=0;endSize=12;" parent="1" source="QN-ZKGfzIM9sbQY_N0U2-31" target="QN-ZKGfzIM9sbQY_N0U2-39" edge="1">
          <mxGeometry relative="1" as="geometry" />
        </mxCell>
        <mxCell id="yGeFEJMInWNtsbP3KPp0-135" value="" style="edgeStyle=orthogonalEdgeStyle;shape=connector;rounded=0;orthogonalLoop=1;jettySize=auto;html=1;strokeColor=#FF3333;strokeWidth=2;align=center;verticalAlign=middle;fontFamily=Helvetica;fontSize=11;fontColor=default;labelBackgroundColor=default;startSize=12;endArrow=none;endFill=0;endSize=12;startArrow=ERmandOne;startFill=0;" parent="1" source="QN-ZKGfzIM9sbQY_N0U2-31" target="yGeFEJMInWNtsbP3KPp0-134" edge="1">
          <mxGeometry relative="1" as="geometry" />
        </mxCell>
        <mxCell id="QN-ZKGfzIM9sbQY_N0U2-31" value="&lt;b&gt;&lt;font color=&quot;#000000&quot; style=&quot;font-size: 16px;&quot;&gt;Order&lt;/font&gt;&lt;/b&gt;" style="rounded=0;whiteSpace=wrap;html=1;fillColor=#FFDC2E;strokeColor=#FFDC2E;gradientColor=none;strokeWidth=2;gradientDirection=radial;" parent="1" vertex="1">
          <mxGeometry x="1100" y="162.5" width="130" height="30" as="geometry" />
        </mxCell>
        <mxCell id="QN-ZKGfzIM9sbQY_N0U2-32" value="&lt;font color=&quot;#000000&quot; style=&quot;font-size: 15px;&quot;&gt;&lt;b&gt;&lt;u&gt;ID&lt;/u&gt;&lt;/b&gt;&lt;/font&gt;" style="ellipse;whiteSpace=wrap;html=1;fillColor=#FFDC2E;gradientColor=none;strokeColor=#FFDC2E;" parent="1" vertex="1">
          <mxGeometry x="1110" y="20" width="50" height="40" as="geometry" />
        </mxCell>
        <mxCell id="yGeFEJMInWNtsbP3KPp0-127" style="edgeStyle=orthogonalEdgeStyle;shape=connector;rounded=0;orthogonalLoop=1;jettySize=auto;html=1;entryX=0.25;entryY=0;entryDx=0;entryDy=0;strokeColor=default;strokeWidth=2;align=center;verticalAlign=middle;fontFamily=Helvetica;fontSize=11;fontColor=default;labelBackgroundColor=default;startSize=6;endArrow=none;endFill=0;endSize=12;" parent="1" source="QN-ZKGfzIM9sbQY_N0U2-35" target="QN-ZKGfzIM9sbQY_N0U2-31" edge="1">
          <mxGeometry relative="1" as="geometry" />
        </mxCell>
        <mxCell id="QN-ZKGfzIM9sbQY_N0U2-35" value="&lt;font color=&quot;#000000&quot;&gt;&lt;span style=&quot;font-size: 15px;&quot;&gt;&lt;b&gt;Date&lt;/b&gt;&lt;/span&gt;&lt;/font&gt;" style="ellipse;whiteSpace=wrap;html=1;fillColor=#FFDC2E;gradientColor=none;strokeColor=#FFDC2E;" parent="1" vertex="1">
          <mxGeometry x="1160" y="30" width="70" height="50" as="geometry" />
        </mxCell>
        <mxCell id="QN-ZKGfzIM9sbQY_N0U2-39" value="&lt;font color=&quot;#000000&quot;&gt;&lt;span style=&quot;font-size: 15px;&quot;&gt;&lt;b&gt;Type&lt;/b&gt;&lt;/span&gt;&lt;/font&gt;" style="ellipse;whiteSpace=wrap;html=1;fillColor=#FFDC2E;gradientColor=none;strokeColor=#FFDC2E;" parent="1" vertex="1">
          <mxGeometry x="1030" y="20" width="70" height="50" as="geometry" />
        </mxCell>
        <mxCell id="QN-ZKGfzIM9sbQY_N0U2-44" value="&lt;font color=&quot;#000000&quot;&gt;&lt;span style=&quot;font-size: 16px;&quot;&gt;&lt;b&gt;Email&lt;/b&gt;&lt;/span&gt;&lt;/font&gt;" style="ellipse;whiteSpace=wrap;html=1;fillColor=#FFDC2E;gradientColor=none;strokeColor=#FFDC2E;" parent="1" vertex="1">
          <mxGeometry x="20" y="468.75" width="60" height="50" as="geometry" />
        </mxCell>
        <mxCell id="yGeFEJMInWNtsbP3KPp0-74" style="edgeStyle=orthogonalEdgeStyle;rounded=0;orthogonalLoop=1;jettySize=auto;html=1;entryX=0.25;entryY=0;entryDx=0;entryDy=0;strokeWidth=2;endArrow=none;endFill=0;" parent="1" source="QN-ZKGfzIM9sbQY_N0U2-49" target="QN-ZKGfzIM9sbQY_N0U2-17" edge="1">
          <mxGeometry relative="1" as="geometry" />
        </mxCell>
        <mxCell id="QN-ZKGfzIM9sbQY_N0U2-49" value="&lt;font style=&quot;font-size: 16px;&quot; color=&quot;#000000&quot;&gt;&lt;b&gt;ِAddress&lt;/b&gt;&lt;/font&gt;" style="ellipse;whiteSpace=wrap;html=1;fillColor=#FFDC2E;gradientColor=none;strokeColor=#FFDC2E;" parent="1" vertex="1">
          <mxGeometry x="120" y="290" width="70" height="50" as="geometry" />
        </mxCell>
        <mxCell id="QN-ZKGfzIM9sbQY_N0U2-51" value="&lt;font style=&quot;font-size: 16px;&quot; color=&quot;#000000&quot;&gt;&lt;b&gt;Phone&lt;/b&gt;&lt;/font&gt;" style="ellipse;whiteSpace=wrap;html=1;fillColor=#FFDC2E;gradientColor=none;strokeColor=#FFDC2E;" parent="1" vertex="1">
          <mxGeometry x="30" y="300" width="70" height="50" as="geometry" />
        </mxCell>
        <mxCell id="QN-ZKGfzIM9sbQY_N0U2-53" style="edgeStyle=orthogonalEdgeStyle;rounded=0;orthogonalLoop=1;jettySize=auto;html=1;entryX=0.315;entryY=1.033;entryDx=0;entryDy=0;entryPerimeter=0;strokeWidth=2;endArrow=none;endFill=0;" parent="1" source="QN-ZKGfzIM9sbQY_N0U2-44" target="QN-ZKGfzIM9sbQY_N0U2-17" edge="1">
          <mxGeometry relative="1" as="geometry">
            <Array as="points">
              <mxPoint x="121" y="505" />
            </Array>
          </mxGeometry>
        </mxCell>
        <mxCell id="QN-ZKGfzIM9sbQY_N0U2-56" style="edgeStyle=orthogonalEdgeStyle;rounded=0;orthogonalLoop=1;jettySize=auto;html=1;entryX=1;entryY=0.5;entryDx=0;entryDy=0;strokeWidth=2;endArrow=none;endFill=0;" parent="1" source="QN-ZKGfzIM9sbQY_N0U2-55" target="QN-ZKGfzIM9sbQY_N0U2-17" edge="1">
          <mxGeometry relative="1" as="geometry" />
        </mxCell>
        <mxCell id="QN-ZKGfzIM9sbQY_N0U2-55" value="&lt;font color=&quot;#000000&quot;&gt;&lt;span style=&quot;font-size: 16px;&quot;&gt;&lt;b&gt;Type&lt;/b&gt;&lt;/span&gt;&lt;/font&gt;" style="ellipse;whiteSpace=wrap;html=1;fillColor=#FFDC2E;gradientColor=none;strokeColor=#FFDC2E;" parent="1" vertex="1">
          <mxGeometry x="260" y="418.75" width="50" height="50" as="geometry" />
        </mxCell>
        <mxCell id="yGeFEJMInWNtsbP3KPp0-136" style="edgeStyle=orthogonalEdgeStyle;shape=connector;rounded=0;orthogonalLoop=1;jettySize=auto;html=1;entryX=1;entryY=0;entryDx=0;entryDy=0;strokeColor=default;strokeWidth=2;align=center;verticalAlign=middle;fontFamily=Helvetica;fontSize=11;fontColor=default;labelBackgroundColor=default;startSize=6;endArrow=ERoneToMany;endFill=0;endSize=12;exitX=0.5;exitY=1;exitDx=0;exitDy=0;" parent="1" source="QN-ZKGfzIM9sbQY_N0U2-58" target="QN-ZKGfzIM9sbQY_N0U2-31" edge="1">
          <mxGeometry relative="1" as="geometry">
            <Array as="points">
              <mxPoint x="1370" y="160" />
              <mxPoint x="1290" y="160" />
            </Array>
          </mxGeometry>
        </mxCell>
        <mxCell id="QN-ZKGfzIM9sbQY_N0U2-58" value="&lt;font color=&quot;#000000&quot; style=&quot;font-size: 15px;&quot;&gt;&lt;b&gt;Pay_Type&lt;/b&gt;&lt;/font&gt;" style="ellipse;whiteSpace=wrap;html=1;fillColor=#FFDC2E;gradientColor=none;strokeColor=#FFDC2E;" parent="1" vertex="1">
          <mxGeometry x="1330" y="50" width="80" height="50" as="geometry" />
        </mxCell>
        <mxCell id="yGeFEJMInWNtsbP3KPp0-103" value="" style="edgeStyle=orthogonalEdgeStyle;shape=connector;rounded=0;orthogonalLoop=1;jettySize=auto;html=1;strokeColor=#FF3333;strokeWidth=2;align=center;verticalAlign=middle;fontFamily=Helvetica;fontSize=11;fontColor=default;labelBackgroundColor=default;startSize=12;endArrow=none;endFill=0;endSize=12;startArrow=ERmandOne;startFill=0;curved=1;entryX=1;entryY=0.5;entryDx=0;entryDy=0;" parent="1" source="yGeFEJMInWNtsbP3KPp0-3" target="yGeFEJMInWNtsbP3KPp0-102" edge="1">
          <mxGeometry relative="1" as="geometry">
            <mxPoint x="620" y="740" as="targetPoint" />
          </mxGeometry>
        </mxCell>
        <mxCell id="yGeFEJMInWNtsbP3KPp0-107" value="" style="edgeStyle=orthogonalEdgeStyle;shape=connector;rounded=0;orthogonalLoop=1;jettySize=auto;html=1;strokeColor=#FF3333;strokeWidth=2;align=center;verticalAlign=middle;fontFamily=Helvetica;fontSize=11;fontColor=default;labelBackgroundColor=default;startSize=12;endArrow=none;endFill=0;endSize=12;curved=1;startArrow=ERzeroToOne;startFill=0;" parent="1" source="yGeFEJMInWNtsbP3KPp0-3" target="yGeFEJMInWNtsbP3KPp0-106" edge="1">
          <mxGeometry relative="1" as="geometry">
            <Array as="points">
              <mxPoint x="942" y="778" />
              <mxPoint x="942" y="740" />
            </Array>
          </mxGeometry>
        </mxCell>
        <mxCell id="yGeFEJMInWNtsbP3KPp0-3" value="&lt;font color=&quot;#000000&quot;&gt;&lt;span style=&quot;font-size: 16px;&quot;&gt;&lt;span&gt;Tables&lt;/span&gt;&lt;/span&gt;&lt;/font&gt;" style="rounded=0;whiteSpace=wrap;html=1;fillColor=#FFDC2E;strokeColor=#FFDC2E;gradientColor=none;strokeWidth=2;gradientDirection=radial;fontStyle=1" parent="1" vertex="1">
          <mxGeometry x="700" y="762.5" width="155" height="30" as="geometry" />
        </mxCell>
        <mxCell id="yGeFEJMInWNtsbP3KPp0-8" style="edgeStyle=orthogonalEdgeStyle;rounded=0;orthogonalLoop=1;jettySize=auto;html=1;entryX=0.25;entryY=1;entryDx=0;entryDy=0;strokeWidth=2;endArrow=none;endFill=0;" parent="1" source="yGeFEJMInWNtsbP3KPp0-4" target="yGeFEJMInWNtsbP3KPp0-3" edge="1">
          <mxGeometry relative="1" as="geometry" />
        </mxCell>
        <mxCell id="yGeFEJMInWNtsbP3KPp0-4" value="&lt;font color=&quot;#000000&quot;&gt;&lt;span style=&quot;font-size: 16px;&quot;&gt;&lt;b&gt;&lt;u&gt;Tables_ID&lt;/u&gt;&lt;/b&gt;&lt;/span&gt;&lt;/font&gt;" style="ellipse;whiteSpace=wrap;html=1;fillColor=#FFDC2E;gradientColor=none;strokeColor=#FFDC2E;" parent="1" vertex="1">
          <mxGeometry x="600" y="840" width="85" height="60" as="geometry" />
        </mxCell>
        <mxCell id="yGeFEJMInWNtsbP3KPp0-9" style="edgeStyle=orthogonalEdgeStyle;rounded=0;orthogonalLoop=1;jettySize=auto;html=1;strokeWidth=2;endArrow=none;endFill=0;" parent="1" source="yGeFEJMInWNtsbP3KPp0-5" target="yGeFEJMInWNtsbP3KPp0-3" edge="1">
          <mxGeometry relative="1" as="geometry" />
        </mxCell>
        <mxCell id="yGeFEJMInWNtsbP3KPp0-5" value="&lt;font color=&quot;#000000&quot;&gt;&lt;span style=&quot;font-size: 16px;&quot;&gt;&lt;b&gt;Capacity&lt;/b&gt;&lt;/span&gt;&lt;/font&gt;" style="ellipse;whiteSpace=wrap;html=1;fillColor=#FFDC2E;gradientColor=none;strokeColor=#FFDC2E;" parent="1" vertex="1">
          <mxGeometry x="741.25" y="862.5" width="72.5" height="50" as="geometry" />
        </mxCell>
        <mxCell id="yGeFEJMInWNtsbP3KPp0-10" style="edgeStyle=orthogonalEdgeStyle;rounded=0;orthogonalLoop=1;jettySize=auto;html=1;entryX=0.75;entryY=1;entryDx=0;entryDy=0;strokeWidth=2;endArrow=none;endFill=0;" parent="1" source="yGeFEJMInWNtsbP3KPp0-6" target="yGeFEJMInWNtsbP3KPp0-3" edge="1">
          <mxGeometry relative="1" as="geometry" />
        </mxCell>
        <mxCell id="yGeFEJMInWNtsbP3KPp0-6" value="&lt;font color=&quot;#000000&quot; style=&quot;font-size: 16px;&quot;&gt;&lt;b&gt;Status&lt;/b&gt;&lt;/font&gt;" style="ellipse;whiteSpace=wrap;html=1;fillColor=#FFDC2E;gradientColor=none;strokeColor=#FFDC2E;" parent="1" vertex="1">
          <mxGeometry x="840" y="842.5" width="60" height="50" as="geometry" />
        </mxCell>
        <mxCell id="yGeFEJMInWNtsbP3KPp0-12" value="&lt;font color=&quot;#000000&quot;&gt;&lt;span style=&quot;font-size: 16px;&quot;&gt;&lt;b&gt;Reservation&lt;/b&gt;&lt;/span&gt;&lt;/font&gt;" style="rounded=0;whiteSpace=wrap;html=1;fillColor=#FFDC2E;strokeColor=#FFDC2E;gradientColor=none;strokeWidth=2;gradientDirection=radial;" parent="1" vertex="1">
          <mxGeometry x="145" y="770" width="155" height="30" as="geometry" />
        </mxCell>
        <mxCell id="yGeFEJMInWNtsbP3KPp0-14" style="edgeStyle=orthogonalEdgeStyle;rounded=0;orthogonalLoop=1;jettySize=auto;html=1;entryX=0.25;entryY=1;entryDx=0;entryDy=0;strokeWidth=2;endArrow=none;endFill=0;" parent="1" source="yGeFEJMInWNtsbP3KPp0-13" target="yGeFEJMInWNtsbP3KPp0-12" edge="1">
          <mxGeometry relative="1" as="geometry" />
        </mxCell>
        <mxCell id="yGeFEJMInWNtsbP3KPp0-13" value="&lt;font color=&quot;#000000&quot;&gt;&lt;span style=&quot;font-size: 16px;&quot;&gt;&lt;b&gt;&lt;u&gt;Reservation_Id&lt;/u&gt;&lt;/b&gt;&lt;/span&gt;&lt;/font&gt;" style="ellipse;whiteSpace=wrap;html=1;fillColor=#FFDC2E;gradientColor=none;strokeColor=#FFDC2E;" parent="1" vertex="1">
          <mxGeometry x="20" y="850" width="125" height="70" as="geometry" />
        </mxCell>
        <mxCell id="yGeFEJMInWNtsbP3KPp0-16" style="edgeStyle=orthogonalEdgeStyle;rounded=0;orthogonalLoop=1;jettySize=auto;html=1;entryX=0.5;entryY=1;entryDx=0;entryDy=0;strokeWidth=2;endArrow=none;endFill=0;" parent="1" source="yGeFEJMInWNtsbP3KPp0-15" target="yGeFEJMInWNtsbP3KPp0-12" edge="1">
          <mxGeometry relative="1" as="geometry" />
        </mxCell>
        <mxCell id="yGeFEJMInWNtsbP3KPp0-15" value="&lt;font color=&quot;#000000&quot;&gt;&lt;span style=&quot;font-size: 16px;&quot;&gt;&lt;b&gt;Number&lt;br&gt;people&lt;/b&gt;&lt;/span&gt;&lt;/font&gt;" style="ellipse;whiteSpace=wrap;html=1;fillColor=#FFDC2E;gradientColor=none;strokeColor=#FFDC2E;" parent="1" vertex="1">
          <mxGeometry x="160" y="860" width="80" height="60" as="geometry" />
        </mxCell>
        <mxCell id="yGeFEJMInWNtsbP3KPp0-18" style="edgeStyle=orthogonalEdgeStyle;rounded=0;orthogonalLoop=1;jettySize=auto;html=1;entryX=0.75;entryY=1;entryDx=0;entryDy=0;strokeWidth=2;endArrow=none;endFill=0;" parent="1" source="yGeFEJMInWNtsbP3KPp0-17" target="yGeFEJMInWNtsbP3KPp0-12" edge="1">
          <mxGeometry relative="1" as="geometry" />
        </mxCell>
        <mxCell id="yGeFEJMInWNtsbP3KPp0-17" value="&lt;font color=&quot;#000000&quot;&gt;&lt;span style=&quot;font-size: 16px;&quot;&gt;&lt;b&gt;Phone&lt;/b&gt;&lt;/span&gt;&lt;/font&gt;" style="ellipse;whiteSpace=wrap;html=1;fillColor=#FFDC2E;gradientColor=none;strokeColor=#FFDC2E;" parent="1" vertex="1">
          <mxGeometry x="260" y="860" width="70" height="50" as="geometry" />
        </mxCell>
        <mxCell id="yGeFEJMInWNtsbP3KPp0-142" style="edgeStyle=orthogonalEdgeStyle;shape=connector;rounded=0;orthogonalLoop=1;jettySize=auto;html=1;exitX=0;exitY=0.5;exitDx=0;exitDy=0;strokeColor=default;strokeWidth=2;align=center;verticalAlign=middle;fontFamily=Helvetica;fontSize=11;fontColor=default;labelBackgroundColor=default;startSize=6;endArrow=none;endFill=0;endSize=12;" parent="1" source="yGeFEJMInWNtsbP3KPp0-23" target="yGeFEJMInWNtsbP3KPp0-27" edge="1">
          <mxGeometry relative="1" as="geometry" />
        </mxCell>
        <mxCell id="yGeFEJMInWNtsbP3KPp0-23" value="&lt;font color=&quot;#000000&quot; style=&quot;font-size: 16px;&quot;&gt;&lt;b&gt;Invoices&lt;/b&gt;&lt;/font&gt;" style="rounded=0;whiteSpace=wrap;html=1;fillColor=#FFDC2E;strokeColor=#FFDC2E;gradientColor=none;strokeWidth=2;gradientDirection=radial;" parent="1" vertex="1">
          <mxGeometry x="1333.75" y="370" width="142.5" height="30" as="geometry" />
        </mxCell>
        <mxCell id="yGeFEJMInWNtsbP3KPp0-27" value="&lt;font color=&quot;#000000&quot;&gt;&lt;span style=&quot;font-size: 16px;&quot;&gt;&lt;b&gt;&lt;u&gt;invoices_Id&lt;/u&gt;&lt;/b&gt;&lt;/span&gt;&lt;/font&gt;" style="ellipse;whiteSpace=wrap;html=1;fillColor=#FFDC2E;gradientColor=none;strokeColor=#FFDC2E;" parent="1" vertex="1">
          <mxGeometry x="1250" y="440" width="110" height="70" as="geometry" />
        </mxCell>
        <mxCell id="yGeFEJMInWNtsbP3KPp0-30" style="edgeStyle=orthogonalEdgeStyle;rounded=0;orthogonalLoop=1;jettySize=auto;html=1;strokeWidth=2;endArrow=none;endFill=0;" parent="1" source="yGeFEJMInWNtsbP3KPp0-29" target="yGeFEJMInWNtsbP3KPp0-23" edge="1">
          <mxGeometry relative="1" as="geometry" />
        </mxCell>
        <mxCell id="yGeFEJMInWNtsbP3KPp0-29" value="&lt;font color=&quot;#000000&quot; style=&quot;font-size: 16px;&quot;&gt;&lt;b style=&quot;&quot;&gt;Status&lt;/b&gt;&lt;/font&gt;" style="ellipse;whiteSpace=wrap;html=1;fillColor=#FFDC2E;gradientColor=none;strokeColor=#FFDC2E;" parent="1" vertex="1">
          <mxGeometry x="1380" y="535" width="60" height="50" as="geometry" />
        </mxCell>
        <mxCell id="yGeFEJMInWNtsbP3KPp0-32" style="edgeStyle=orthogonalEdgeStyle;rounded=0;orthogonalLoop=1;jettySize=auto;html=1;entryX=0.75;entryY=1;entryDx=0;entryDy=0;strokeWidth=2;endArrow=none;endFill=0;" parent="1" source="yGeFEJMInWNtsbP3KPp0-31" target="yGeFEJMInWNtsbP3KPp0-23" edge="1">
          <mxGeometry relative="1" as="geometry" />
        </mxCell>
        <mxCell id="yGeFEJMInWNtsbP3KPp0-31" value="&lt;font color=&quot;#000000&quot; style=&quot;font-size: 15px;&quot;&gt;&lt;b&gt;Calculation&lt;/b&gt;&lt;/font&gt;" style="ellipse;whiteSpace=wrap;html=1;fillColor=#FFDC2E;gradientColor=none;strokeColor=#FFDC2E;" parent="1" vertex="1">
          <mxGeometry x="1470" y="468.75" width="90" height="50" as="geometry" />
        </mxCell>
        <mxCell id="yGeFEJMInWNtsbP3KPp0-162" style="edgeStyle=orthogonalEdgeStyle;shape=connector;rounded=0;orthogonalLoop=1;jettySize=auto;html=1;exitX=0.25;exitY=1;exitDx=0;exitDy=0;entryX=0.5;entryY=0;entryDx=0;entryDy=0;strokeColor=default;strokeWidth=2;align=center;verticalAlign=middle;fontFamily=Helvetica;fontSize=11;fontColor=default;labelBackgroundColor=default;startSize=6;endArrow=none;endFill=0;endSize=12;" parent="1" source="yGeFEJMInWNtsbP3KPp0-47" target="yGeFEJMInWNtsbP3KPp0-54" edge="1">
          <mxGeometry relative="1" as="geometry" />
        </mxCell>
        <mxCell id="yGeFEJMInWNtsbP3KPp0-163" style="edgeStyle=orthogonalEdgeStyle;shape=connector;rounded=0;orthogonalLoop=1;jettySize=auto;html=1;exitX=0.5;exitY=1;exitDx=0;exitDy=0;strokeColor=default;strokeWidth=2;align=center;verticalAlign=middle;fontFamily=Helvetica;fontSize=11;fontColor=default;labelBackgroundColor=default;startSize=6;endArrow=none;endFill=0;endSize=12;" parent="1" source="yGeFEJMInWNtsbP3KPp0-47" target="yGeFEJMInWNtsbP3KPp0-52" edge="1">
          <mxGeometry relative="1" as="geometry" />
        </mxCell>
        <mxCell id="yGeFEJMInWNtsbP3KPp0-164" style="edgeStyle=orthogonalEdgeStyle;shape=connector;rounded=0;orthogonalLoop=1;jettySize=auto;html=1;exitX=0.75;exitY=1;exitDx=0;exitDy=0;entryX=0.5;entryY=0;entryDx=0;entryDy=0;strokeColor=default;strokeWidth=2;align=center;verticalAlign=middle;fontFamily=Helvetica;fontSize=11;fontColor=default;labelBackgroundColor=default;startSize=6;endArrow=none;endFill=0;endSize=12;" parent="1" source="yGeFEJMInWNtsbP3KPp0-47" target="yGeFEJMInWNtsbP3KPp0-48" edge="1">
          <mxGeometry relative="1" as="geometry" />
        </mxCell>
        <mxCell id="yGeFEJMInWNtsbP3KPp0-47" value="&lt;font color=&quot;#000000&quot;&gt;&lt;span style=&quot;font-size: 16px;&quot;&gt;Dishes&lt;/span&gt;&lt;/font&gt;" style="rounded=0;whiteSpace=wrap;html=1;fillColor=#FFDC2E;strokeColor=#FFDC2E;gradientColor=none;strokeWidth=2;gradientDirection=radial;fontStyle=1" parent="1" vertex="1">
          <mxGeometry x="955" y="1070" width="155" height="30" as="geometry" />
        </mxCell>
        <mxCell id="yGeFEJMInWNtsbP3KPp0-48" value="&lt;font color=&quot;#000000&quot;&gt;&lt;span style=&quot;font-size: 16px;&quot;&gt;&lt;b&gt;price&lt;/b&gt;&lt;/span&gt;&lt;/font&gt;" style="ellipse;whiteSpace=wrap;html=1;fillColor=#FFDC2E;gradientColor=none;strokeColor=#FFDC2E;" parent="1" vertex="1">
          <mxGeometry x="1065" y="1230" width="60" height="50" as="geometry" />
        </mxCell>
        <mxCell id="yGeFEJMInWNtsbP3KPp0-52" value="&lt;font color=&quot;#000000&quot;&gt;&lt;span style=&quot;font-size: 16px;&quot;&gt;&lt;b&gt;Name&lt;/b&gt;&lt;/span&gt;&lt;/font&gt;" style="ellipse;whiteSpace=wrap;html=1;fillColor=#FFDC2E;gradientColor=none;strokeColor=#FFDC2E;" parent="1" vertex="1">
          <mxGeometry x="975" y="1250" width="60" height="50" as="geometry" />
        </mxCell>
        <mxCell id="yGeFEJMInWNtsbP3KPp0-54" value="&lt;font color=&quot;#000000&quot;&gt;&lt;span style=&quot;font-size: 16px;&quot;&gt;&lt;b&gt;Description&lt;/b&gt;&lt;/span&gt;&lt;/font&gt;" style="ellipse;whiteSpace=wrap;html=1;fillColor=#FFDC2E;gradientColor=none;strokeColor=#FFDC2E;" parent="1" vertex="1">
          <mxGeometry x="890" y="1180" width="90" height="50" as="geometry" />
        </mxCell>
        <mxCell id="yGeFEJMInWNtsbP3KPp0-161" style="edgeStyle=orthogonalEdgeStyle;shape=connector;rounded=0;orthogonalLoop=1;jettySize=auto;html=1;exitX=1;exitY=0.5;exitDx=0;exitDy=0;entryX=0;entryY=0.75;entryDx=0;entryDy=0;strokeColor=default;strokeWidth=2;align=center;verticalAlign=middle;fontFamily=Helvetica;fontSize=11;fontColor=default;labelBackgroundColor=default;startSize=6;endArrow=none;endFill=0;endSize=12;" parent="1" source="yGeFEJMInWNtsbP3KPp0-58" target="yGeFEJMInWNtsbP3KPp0-47" edge="1">
          <mxGeometry relative="1" as="geometry" />
        </mxCell>
        <mxCell id="yGeFEJMInWNtsbP3KPp0-58" value="&lt;font color=&quot;#000000&quot;&gt;&lt;span style=&quot;font-size: 16px;&quot;&gt;&lt;b&gt;Amount&lt;/b&gt;&lt;/span&gt;&lt;/font&gt;" style="ellipse;whiteSpace=wrap;html=1;fillColor=#FFDC2E;gradientColor=none;strokeColor=#FFDC2E;" parent="1" vertex="1">
          <mxGeometry x="820" y="1140" width="70" height="50" as="geometry" />
        </mxCell>
        <mxCell id="yGeFEJMInWNtsbP3KPp0-122" value="" style="edgeStyle=orthogonalEdgeStyle;shape=connector;rounded=0;orthogonalLoop=1;jettySize=auto;html=1;strokeColor=#FF3333;strokeWidth=2;align=center;verticalAlign=middle;fontFamily=Helvetica;fontSize=11;fontColor=default;labelBackgroundColor=default;startSize=12;endArrow=none;endFill=0;endSize=12;startArrow=ERmandOne;startFill=0;curved=1;" parent="1" source="yGeFEJMInWNtsbP3KPp0-60" target="yGeFEJMInWNtsbP3KPp0-121" edge="1">
          <mxGeometry relative="1" as="geometry" />
        </mxCell>
        <mxCell id="yGeFEJMInWNtsbP3KPp0-60" value="&lt;font color=&quot;#000000&quot;&gt;&lt;span style=&quot;font-size: 16px;&quot;&gt;&lt;b&gt;menu&lt;/b&gt;&lt;/span&gt;&lt;/font&gt;" style="rounded=0;whiteSpace=wrap;html=1;fillColor=#FFDC2E;strokeColor=#FFDC2E;gradientColor=none;strokeWidth=2;gradientDirection=radial;" parent="1" vertex="1">
          <mxGeometry x="511.25" y="1020" width="155" height="30" as="geometry" />
        </mxCell>
        <mxCell id="yGeFEJMInWNtsbP3KPp0-66" style="edgeStyle=orthogonalEdgeStyle;rounded=0;orthogonalLoop=1;jettySize=auto;html=1;entryX=0.5;entryY=1;entryDx=0;entryDy=0;strokeWidth=2;endArrow=none;endFill=0;" parent="1" source="yGeFEJMInWNtsbP3KPp0-65" target="yGeFEJMInWNtsbP3KPp0-60" edge="1">
          <mxGeometry relative="1" as="geometry" />
        </mxCell>
        <mxCell id="yGeFEJMInWNtsbP3KPp0-65" value="&lt;font color=&quot;#000000&quot; style=&quot;font-size: 16px;&quot;&gt;&lt;b style=&quot;&quot;&gt;name&lt;/b&gt;&lt;/font&gt;" style="ellipse;whiteSpace=wrap;html=1;fillColor=#FFDC2E;gradientColor=none;strokeColor=#FFDC2E;" parent="1" vertex="1">
          <mxGeometry x="580" y="1090" width="80" height="50" as="geometry" />
        </mxCell>
        <mxCell id="yGeFEJMInWNtsbP3KPp0-72" style="edgeStyle=orthogonalEdgeStyle;rounded=0;orthogonalLoop=1;jettySize=auto;html=1;entryX=0.131;entryY=0.067;entryDx=0;entryDy=0;entryPerimeter=0;strokeWidth=2;endArrow=none;endFill=0;" parent="1" source="QN-ZKGfzIM9sbQY_N0U2-51" target="QN-ZKGfzIM9sbQY_N0U2-17" edge="1">
          <mxGeometry relative="1" as="geometry" />
        </mxCell>
        <mxCell id="yGeFEJMInWNtsbP3KPp0-83" style="edgeStyle=entityRelationEdgeStyle;rounded=0;orthogonalLoop=1;jettySize=auto;html=1;entryX=0;entryY=0.5;entryDx=0;entryDy=0;strokeWidth=2;endArrow=ERzeroToMany;endFill=0;startSize=6;endSize=12;startFillColor=#FFFFFF;strokeColor=#FF3333;fillColor=#cce5ff;" parent="1" source="yGeFEJMInWNtsbP3KPp0-81" target="QN-ZKGfzIM9sbQY_N0U2-31" edge="1">
          <mxGeometry relative="1" as="geometry" />
        </mxCell>
        <mxCell id="yGeFEJMInWNtsbP3KPp0-81" value="&lt;font color=&quot;#000000&quot; style=&quot;font-size: 18px;&quot;&gt;&lt;b&gt;Has&lt;/b&gt;&lt;/font&gt;" style="rhombus;whiteSpace=wrap;html=1;fillColor=#eeeeee;rounded=0;strokeWidth=2;gradientDirection=radial;strokeColor=none;" parent="1" vertex="1">
          <mxGeometry x="885" y="168.75" width="80" height="72.5" as="geometry" />
        </mxCell>
        <mxCell id="yGeFEJMInWNtsbP3KPp0-104" value="" style="edgeStyle=orthogonalEdgeStyle;shape=connector;rounded=0;orthogonalLoop=1;jettySize=auto;html=1;strokeColor=#FF3333;strokeWidth=2;align=center;verticalAlign=middle;fontFamily=Helvetica;fontSize=11;fontColor=default;labelBackgroundColor=default;startSize=6;endArrow=ERmandOne;endFill=0;endSize=12;curved=1;" parent="1" source="yGeFEJMInWNtsbP3KPp0-102" target="yGeFEJMInWNtsbP3KPp0-12" edge="1">
          <mxGeometry relative="1" as="geometry">
            <Array as="points">
              <mxPoint x="280" y="648" />
            </Array>
          </mxGeometry>
        </mxCell>
        <mxCell id="yGeFEJMInWNtsbP3KPp0-102" value="&lt;font color=&quot;#000000&quot; style=&quot;font-size: 15px;&quot;&gt;Reserves&lt;/font&gt;" style="rhombus;whiteSpace=wrap;html=1;fillColor=#EEEEEE;strokeColor=none;rounded=0;gradientColor=none;strokeWidth=2;gradientDirection=radial;fontStyle=1;" parent="1" vertex="1">
          <mxGeometry x="425" y="615" width="80" height="65" as="geometry" />
        </mxCell>
        <mxCell id="yGeFEJMInWNtsbP3KPp0-108" style="edgeStyle=orthogonalEdgeStyle;shape=connector;rounded=0;orthogonalLoop=1;jettySize=auto;html=1;exitX=0.5;exitY=0;exitDx=0;exitDy=0;strokeColor=#FF3333;strokeWidth=2;align=center;verticalAlign=middle;fontFamily=Helvetica;fontSize=11;fontColor=default;labelBackgroundColor=default;startSize=12;endArrow=ERzeroToOne;endFill=0;endSize=12;curved=1;" parent="1" edge="1">
          <mxGeometry relative="1" as="geometry">
            <Array as="points">
              <mxPoint x="1200" y="488" />
              <mxPoint x="1220" y="488" />
              <mxPoint x="1220" y="413" />
              <mxPoint x="1225" y="413" />
              <mxPoint x="1225" y="290" />
              <mxPoint x="1190" y="290" />
            </Array>
            <mxPoint x="1190" y="200" as="targetPoint" />
            <mxPoint x="1200" y="557.5" as="sourcePoint" />
          </mxGeometry>
        </mxCell>
        <mxCell id="yGeFEJMInWNtsbP3KPp0-106" value="&lt;font color=&quot;#000000&quot; style=&quot;font-size: 16px;&quot;&gt;Serves&lt;/font&gt;" style="rhombus;whiteSpace=wrap;html=1;fillColor=#EEEEEE;strokeColor=none;rounded=0;gradientColor=none;strokeWidth=2;gradientDirection=radial;fontStyle=1;" parent="1" vertex="1">
          <mxGeometry x="1160" y="530" width="80" height="60" as="geometry" />
        </mxCell>
        <mxCell id="yGeFEJMInWNtsbP3KPp0-119" style="edgeStyle=orthogonalEdgeStyle;shape=connector;rounded=0;orthogonalLoop=1;jettySize=auto;html=1;exitX=1;exitY=0.5;exitDx=0;exitDy=0;entryX=0.5;entryY=1;entryDx=0;entryDy=0;strokeColor=default;strokeWidth=2;align=center;verticalAlign=middle;fontFamily=Helvetica;fontSize=11;fontColor=default;labelBackgroundColor=default;startSize=6;endArrow=none;endFill=0;endSize=12;" parent="1" source="yGeFEJMInWNtsbP3KPp0-109" target="yGeFEJMInWNtsbP3KPp0-111" edge="1">
          <mxGeometry relative="1" as="geometry" />
        </mxCell>
        <mxCell id="yGeFEJMInWNtsbP3KPp0-120" style="edgeStyle=orthogonalEdgeStyle;shape=connector;rounded=0;orthogonalLoop=1;jettySize=auto;html=1;exitX=0;exitY=0.5;exitDx=0;exitDy=0;entryX=0.5;entryY=1;entryDx=0;entryDy=0;strokeColor=default;strokeWidth=2;align=center;verticalAlign=middle;fontFamily=Helvetica;fontSize=11;fontColor=default;labelBackgroundColor=default;startSize=6;endArrow=none;endFill=0;endSize=12;" parent="1" source="yGeFEJMInWNtsbP3KPp0-109" target="yGeFEJMInWNtsbP3KPp0-115" edge="1">
          <mxGeometry relative="1" as="geometry" />
        </mxCell>
        <mxCell id="yGeFEJMInWNtsbP3KPp0-151" style="edgeStyle=orthogonalEdgeStyle;shape=connector;rounded=0;orthogonalLoop=1;jettySize=auto;html=1;strokeColor=default;strokeWidth=2;align=center;verticalAlign=middle;fontFamily=Helvetica;fontSize=11;fontColor=default;labelBackgroundColor=default;startSize=6;endArrow=none;endFill=0;endSize=12;" parent="1" source="yGeFEJMInWNtsbP3KPp0-109" target="yGeFEJMInWNtsbP3KPp0-12" edge="1">
          <mxGeometry relative="1" as="geometry" />
        </mxCell>
        <mxCell id="yGeFEJMInWNtsbP3KPp0-109" value="&lt;font color=&quot;#000000&quot;&gt;&lt;span style=&quot;font-size: 16px;&quot;&gt;&lt;b&gt;Time&lt;/b&gt;&lt;/span&gt;&lt;/font&gt;" style="ellipse;whiteSpace=wrap;html=1;fillColor=#FFDC2E;gradientColor=none;strokeColor=#FFDC2E;" parent="1" vertex="1">
          <mxGeometry x="185" y="650" width="60" height="50" as="geometry" />
        </mxCell>
        <mxCell id="yGeFEJMInWNtsbP3KPp0-111" value="&lt;font color=&quot;#000000&quot;&gt;&lt;span style=&quot;font-size: 16px;&quot;&gt;&lt;b&gt;End&lt;/b&gt;&lt;/span&gt;&lt;/font&gt;" style="ellipse;whiteSpace=wrap;html=1;fillColor=#FFDC2E;gradientColor=none;strokeColor=#FFDC2E;" parent="1" vertex="1">
          <mxGeometry x="255" y="580" width="60" height="50" as="geometry" />
        </mxCell>
        <mxCell id="yGeFEJMInWNtsbP3KPp0-115" value="&lt;font color=&quot;#000000&quot;&gt;&lt;span style=&quot;font-size: 16px;&quot;&gt;&lt;b&gt;Start&lt;/b&gt;&lt;/span&gt;&lt;/font&gt;" style="ellipse;whiteSpace=wrap;html=1;fillColor=#FFDC2E;gradientColor=none;strokeColor=#FFDC2E;" parent="1" vertex="1">
          <mxGeometry x="120" y="580" width="60" height="50" as="geometry" />
        </mxCell>
        <mxCell id="yGeFEJMInWNtsbP3KPp0-123" value="" style="edgeStyle=orthogonalEdgeStyle;shape=connector;rounded=0;orthogonalLoop=1;jettySize=auto;html=1;strokeColor=#FF3333;strokeWidth=2;align=center;verticalAlign=middle;fontFamily=Helvetica;fontSize=11;fontColor=default;labelBackgroundColor=default;startSize=6;endArrow=ERoneToMany;endFill=0;endSize=12;curved=1;" parent="1" source="yGeFEJMInWNtsbP3KPp0-121" target="yGeFEJMInWNtsbP3KPp0-47" edge="1">
          <mxGeometry relative="1" as="geometry" />
        </mxCell>
        <mxCell id="yGeFEJMInWNtsbP3KPp0-121" value="&lt;font color=&quot;#000000&quot; style=&quot;font-size: 16px;&quot;&gt;&lt;b&gt;Has&lt;/b&gt;&lt;/font&gt;" style="rhombus;whiteSpace=wrap;html=1;fillColor=#EEEEEE;strokeColor=none;rounded=0;gradientColor=none;strokeWidth=2;gradientDirection=radial;" parent="1" vertex="1">
          <mxGeometry x="793.75" y="960" width="61.25" height="65" as="geometry" />
        </mxCell>
        <mxCell id="yGeFEJMInWNtsbP3KPp0-126" style="edgeStyle=orthogonalEdgeStyle;shape=connector;rounded=0;orthogonalLoop=1;jettySize=auto;html=1;entryX=0.16;entryY=0.083;entryDx=0;entryDy=0;entryPerimeter=0;strokeColor=default;strokeWidth=2;align=center;verticalAlign=middle;fontFamily=Helvetica;fontSize=11;fontColor=default;labelBackgroundColor=default;startSize=6;endArrow=none;endFill=0;endSize=12;" parent="1" source="QN-ZKGfzIM9sbQY_N0U2-32" target="QN-ZKGfzIM9sbQY_N0U2-31" edge="1">
          <mxGeometry relative="1" as="geometry" />
        </mxCell>
        <mxCell id="yGeFEJMInWNtsbP3KPp0-139" style="edgeStyle=orthogonalEdgeStyle;shape=connector;rounded=0;orthogonalLoop=1;jettySize=auto;html=1;entryX=1;entryY=0.5;entryDx=0;entryDy=0;strokeColor=#FF3333;strokeWidth=2;align=center;verticalAlign=middle;fontFamily=Helvetica;fontSize=11;fontColor=default;labelBackgroundColor=default;startSize=6;endArrow=ERmandOne;endFill=0;endSize=12;" parent="1" source="yGeFEJMInWNtsbP3KPp0-134" target="yGeFEJMInWNtsbP3KPp0-23" edge="1">
          <mxGeometry relative="1" as="geometry">
            <Array as="points">
              <mxPoint x="1560" y="215" />
              <mxPoint x="1560" y="385" />
            </Array>
          </mxGeometry>
        </mxCell>
        <mxCell id="yGeFEJMInWNtsbP3KPp0-134" value="&lt;font color=&quot;#000000&quot; style=&quot;font-size: 14px;&quot;&gt;&lt;b&gt;Linked&amp;nbsp;&lt;/b&gt;&lt;/font&gt;" style="rhombus;whiteSpace=wrap;html=1;fillColor=#EEEEEE;strokeColor=none;rounded=0;gradientColor=none;strokeWidth=2;gradientDirection=radial;" parent="1" vertex="1">
          <mxGeometry x="1370" y="182.5" width="70" height="65" as="geometry" />
        </mxCell>
        <mxCell id="yGeFEJMInWNtsbP3KPp0-153" style="edgeStyle=orthogonalEdgeStyle;shape=connector;rounded=0;orthogonalLoop=1;jettySize=auto;html=1;entryX=0;entryY=0.25;entryDx=0;entryDy=0;strokeColor=#FF3333;strokeWidth=2;align=center;verticalAlign=middle;fontFamily=Helvetica;fontSize=11;fontColor=default;labelBackgroundColor=default;startSize=6;endArrow=ERzeroToOne;endFill=0;endSize=12;" parent="1" edge="1">
          <mxGeometry relative="1" as="geometry">
            <mxPoint x="-50" y="370" as="sourcePoint" />
            <mxPoint x="165" y="770" as="targetPoint" />
            <Array as="points">
              <mxPoint x="-50" y="720" />
              <mxPoint x="165" y="720" />
            </Array>
          </mxGeometry>
        </mxCell>
        <mxCell id="yGeFEJMInWNtsbP3KPp0-152" value="&lt;font color=&quot;#000000&quot; style=&quot;font-size: 15px;&quot;&gt;Belongs_to&lt;/font&gt;" style="rhombus;whiteSpace=wrap;html=1;fillColor=#EEEEEE;strokeColor=none;rounded=0;gradientColor=none;strokeWidth=2;gradientDirection=radial;fontStyle=1;" parent="1" vertex="1">
          <mxGeometry x="-100" y="311.25" width="100" height="65" as="geometry" />
        </mxCell>
        <mxCell id="yGeFEJMInWNtsbP3KPp0-167" style="edgeStyle=orthogonalEdgeStyle;shape=connector;rounded=0;orthogonalLoop=1;jettySize=auto;html=1;exitX=1;exitY=0.5;exitDx=0;exitDy=0;entryX=0.75;entryY=0;entryDx=0;entryDy=0;strokeColor=#FF3333;strokeWidth=2;align=center;verticalAlign=middle;fontFamily=Helvetica;fontSize=11;fontColor=default;labelBackgroundColor=default;startSize=6;endArrow=ERoneToMany;endFill=0;endSize=12;curved=1;" parent="1" source="yGeFEJMInWNtsbP3KPp0-159" target="yGeFEJMInWNtsbP3KPp0-47" edge="1">
          <mxGeometry relative="1" as="geometry" />
        </mxCell>
        <mxCell id="yGeFEJMInWNtsbP3KPp0-159" value="&lt;font color=&quot;#000000&quot; style=&quot;font-size: 15px;&quot;&gt;Belongs_to&lt;/font&gt;" style="rhombus;whiteSpace=wrap;html=1;fillColor=#EEEEEE;strokeColor=none;rounded=0;gradientColor=none;strokeWidth=2;gradientDirection=radial;fontStyle=1;" parent="1" vertex="1">
          <mxGeometry x="1000" y="900" width="100" height="65" as="geometry" />
        </mxCell>
        <mxCell id="9oTaQcb-Jof8NQnY-Mon-2" value="&lt;b&gt;&lt;font color=&quot;#000000&quot; style=&quot;font-size: 16px;&quot;&gt;manager&lt;/font&gt;&lt;/b&gt;" style="rounded=0;whiteSpace=wrap;html=1;fillColor=#FFDC2E;strokeColor=#FFDC2E;gradientColor=none;strokeWidth=2;gradientDirection=radial;" parent="1" vertex="1">
          <mxGeometry x="17.5" y="170" width="130" height="30" as="geometry" />
        </mxCell>
        <mxCell id="9oTaQcb-Jof8NQnY-Mon-7" style="edgeStyle=orthogonalEdgeStyle;rounded=0;orthogonalLoop=1;jettySize=auto;html=1;entryX=0.25;entryY=0;entryDx=0;entryDy=0;endArrow=none;endFill=0;strokeWidth=2;" parent="1" source="9oTaQcb-Jof8NQnY-Mon-6" target="9oTaQcb-Jof8NQnY-Mon-2" edge="1">
          <mxGeometry relative="1" as="geometry" />
        </mxCell>
        <mxCell id="9oTaQcb-Jof8NQnY-Mon-6" value="&lt;font color=&quot;#000000&quot;&gt;&lt;span style=&quot;font-size: 16px;&quot;&gt;&lt;b&gt;Number&lt;br&gt;people&lt;/b&gt;&lt;/span&gt;&lt;/font&gt;" style="ellipse;whiteSpace=wrap;html=1;fillColor=#FFDC2E;gradientColor=none;strokeColor=#FFDC2E;" parent="1" vertex="1">
          <mxGeometry y="45" width="80" height="60" as="geometry" />
        </mxCell>
        <mxCell id="9oTaQcb-Jof8NQnY-Mon-9" style="edgeStyle=orthogonalEdgeStyle;rounded=0;orthogonalLoop=1;jettySize=auto;html=1;endArrow=none;endFill=0;strokeWidth=2;" parent="1" source="9oTaQcb-Jof8NQnY-Mon-8" target="9oTaQcb-Jof8NQnY-Mon-2" edge="1">
          <mxGeometry relative="1" as="geometry" />
        </mxCell>
        <mxCell id="9oTaQcb-Jof8NQnY-Mon-8" value="&lt;font color=&quot;#000000&quot;&gt;&lt;span style=&quot;font-size: 16px;&quot;&gt;&lt;b&gt;Email&lt;/b&gt;&lt;/span&gt;&lt;/font&gt;" style="ellipse;whiteSpace=wrap;html=1;fillColor=#FFDC2E;gradientColor=none;strokeColor=#FFDC2E;" parent="1" vertex="1">
          <mxGeometry x="100" y="45" width="60" height="50" as="geometry" />
        </mxCell>
        <mxCell id="9oTaQcb-Jof8NQnY-Mon-11" style="edgeStyle=orthogonalEdgeStyle;rounded=0;orthogonalLoop=1;jettySize=auto;html=1;entryX=0.75;entryY=1;entryDx=0;entryDy=0;endArrow=none;endFill=0;strokeWidth=2;" parent="1" source="9oTaQcb-Jof8NQnY-Mon-10" target="QN-ZKGfzIM9sbQY_N0U2-17" edge="1">
          <mxGeometry relative="1" as="geometry" />
        </mxCell>
        <mxCell id="9oTaQcb-Jof8NQnY-Mon-10" value="&lt;font color=&quot;#000000&quot;&gt;&lt;span style=&quot;font-size: 16px;&quot;&gt;&lt;b&gt;salary&lt;/b&gt;&lt;/span&gt;&lt;/font&gt;" style="ellipse;whiteSpace=wrap;html=1;fillColor=#FFDC2E;gradientColor=none;strokeColor=#FFDC2E;" parent="1" vertex="1">
          <mxGeometry x="145" y="468.75" width="70" height="50" as="geometry" />
        </mxCell>
        <mxCell id="9oTaQcb-Jof8NQnY-Mon-12" value="&lt;font color=&quot;#000000&quot;&gt;&lt;span style=&quot;font-size: 16px;&quot;&gt;&lt;b&gt;Number&lt;br&gt;people&lt;/b&gt;&lt;/span&gt;&lt;/font&gt;" style="ellipse;whiteSpace=wrap;html=1;fillColor=#FFDC2E;gradientColor=none;strokeColor=#FFDC2E;" parent="1" vertex="1">
          <mxGeometry x="741.25" y="251.25" width="80" height="60" as="geometry" />
        </mxCell>
        <mxCell id="9oTaQcb-Jof8NQnY-Mon-15" style="edgeStyle=orthogonalEdgeStyle;rounded=0;orthogonalLoop=1;jettySize=auto;html=1;entryX=0.75;entryY=0;entryDx=0;entryDy=0;endArrow=none;endFill=0;strokeWidth=2;" parent="1" source="9oTaQcb-Jof8NQnY-Mon-14" target="QN-ZKGfzIM9sbQY_N0U2-31" edge="1">
          <mxGeometry relative="1" as="geometry" />
        </mxCell>
        <mxCell id="9oTaQcb-Jof8NQnY-Mon-14" value="&lt;span style=&quot;font-size: 14.6667px;&quot;&gt;&lt;font color=&quot;#000000&quot;&gt;preparation_time&amp;nbsp;&lt;/font&gt;&lt;/span&gt;" style="ellipse;whiteSpace=wrap;html=1;fillColor=#FFDC2E;gradientColor=none;strokeColor=#FFDC2E;" parent="1" vertex="1">
          <mxGeometry x="1230" y="-5" width="130" height="50" as="geometry" />
        </mxCell>
        <mxCell id="n9tc_jfYeQt_mI4PQYLO-2" style="edgeStyle=orthogonalEdgeStyle;rounded=0;orthogonalLoop=1;jettySize=auto;html=1;entryX=0;entryY=0.25;entryDx=0;entryDy=0;endArrow=none;endFill=0;strokeWidth=2;" parent="1" source="n9tc_jfYeQt_mI4PQYLO-1" target="QN-ZKGfzIM9sbQY_N0U2-31" edge="1">
          <mxGeometry relative="1" as="geometry" />
        </mxCell>
        <mxCell id="n9tc_jfYeQt_mI4PQYLO-1" value="&lt;font color=&quot;#000000&quot;&gt;&lt;span style=&quot;font-size: 15px;&quot;&gt;&lt;b&gt;location&lt;/b&gt;&lt;/span&gt;&lt;/font&gt;" style="ellipse;whiteSpace=wrap;html=1;fillColor=#FFDC2E;gradientColor=none;strokeColor=#FFDC2E;" parent="1" vertex="1">
          <mxGeometry x="940" y="70" width="70" height="50" as="geometry" />
        </mxCell>
        <mxCell id="6QqsQXaVJ1sRk0CtqKUQ-2" style="edgeStyle=orthogonalEdgeStyle;rounded=0;orthogonalLoop=1;jettySize=auto;html=1;exitX=0.5;exitY=1;exitDx=0;exitDy=0;entryX=1;entryY=0.5;entryDx=0;entryDy=0;endArrow=ERoneToMany;endFill=0;strokeWidth=2;strokeColor=#FF0000;" parent="1" source="6QqsQXaVJ1sRk0CtqKUQ-1" target="yGeFEJMInWNtsbP3KPp0-47" edge="1">
          <mxGeometry relative="1" as="geometry" />
        </mxCell>
        <mxCell id="6QqsQXaVJ1sRk0CtqKUQ-3" style="edgeStyle=orthogonalEdgeStyle;rounded=0;orthogonalLoop=1;jettySize=auto;html=1;entryX=0.75;entryY=1;entryDx=0;entryDy=0;endArrow=ERoneToMany;endFill=0;strokeWidth=2;strokeColor=#FF0000;" parent="1" edge="1">
          <mxGeometry relative="1" as="geometry">
            <mxPoint x="1246.290909090909" y="563.8181818181815" as="sourcePoint" />
            <mxPoint x="1143.7" y="192.5" as="targetPoint" />
          </mxGeometry>
        </mxCell>
        <mxCell id="6QqsQXaVJ1sRk0CtqKUQ-1" value="&lt;font color=&quot;#000000&quot; style=&quot;font-size: 16px;&quot;&gt;Contains&lt;/font&gt;" style="rhombus;whiteSpace=wrap;html=1;fillColor=#EEEEEE;strokeColor=none;rounded=0;gradientColor=none;strokeWidth=2;gradientDirection=radial;fontStyle=1;" parent="1" vertex="1">
          <mxGeometry x="1240" y="965" width="80" height="60" as="geometry" />
        </mxCell>
        <mxCell id="XxHLsqreGXPtytjsFbVA-5" style="edgeStyle=orthogonalEdgeStyle;rounded=0;orthogonalLoop=1;jettySize=auto;html=1;strokeColor=#FF0000;endArrow=none;endFill=0;startArrow=ERzeroToOne;startFill=0;strokeWidth=2;" parent="1" source="XxHLsqreGXPtytjsFbVA-1" target="XxHLsqreGXPtytjsFbVA-4" edge="1">
          <mxGeometry relative="1" as="geometry" />
        </mxCell>
        <mxCell id="XxHLsqreGXPtytjsFbVA-1" value="&lt;font color=&quot;#000000&quot;&gt;&lt;span style=&quot;font-size: 16px;&quot;&gt;&lt;b&gt;Waiter&lt;/b&gt;&lt;/span&gt;&lt;/font&gt;" style="rounded=0;whiteSpace=wrap;html=1;fillColor=#FFDC2E;strokeColor=#FFDC2E;gradientColor=none;strokeWidth=2;gradientDirection=radial;" parent="1" vertex="1">
          <mxGeometry x="-250" y="518.75" width="130" height="30" as="geometry" />
        </mxCell>
        <mxCell id="XxHLsqreGXPtytjsFbVA-6" style="edgeStyle=orthogonalEdgeStyle;rounded=0;orthogonalLoop=1;jettySize=auto;html=1;exitX=1;exitY=0.5;exitDx=0;exitDy=0;strokeColor=#FF0000;strokeWidth=2;endArrow=ERzeroToMany;endFill=0;" parent="1" edge="1">
          <mxGeometry relative="1" as="geometry">
            <Array as="points">
              <mxPoint x="980" y="550" />
              <mxPoint x="980" y="262" />
              <mxPoint x="1110" y="262" />
            </Array>
            <mxPoint x="750" y="550.25" as="sourcePoint" />
            <mxPoint x="1110" y="200" as="targetPoint" />
          </mxGeometry>
        </mxCell>
        <mxCell id="XxHLsqreGXPtytjsFbVA-4" value="&lt;font color=&quot;#000000&quot; style=&quot;font-size: 18px;&quot;&gt;&lt;b&gt;manager&lt;/b&gt;&lt;/font&gt;" style="rhombus;whiteSpace=wrap;html=1;fillColor=#eeeeee;rounded=0;strokeWidth=2;gradientDirection=radial;strokeColor=none;" parent="1" vertex="1">
          <mxGeometry x="700" y="497.5" width="110" height="82.5" as="geometry" />
        </mxCell>
        <mxCell id="XxHLsqreGXPtytjsFbVA-9" style="edgeStyle=orthogonalEdgeStyle;rounded=0;orthogonalLoop=1;jettySize=auto;html=1;entryX=0.5;entryY=1;entryDx=0;entryDy=0;strokeWidth=2;strokeColor=#FF0000;endArrow=ERzeroToOne;endFill=0;" parent="1" source="XxHLsqreGXPtytjsFbVA-8" target="XxHLsqreGXPtytjsFbVA-1" edge="1">
          <mxGeometry relative="1" as="geometry">
            <Array as="points">
              <mxPoint x="650" y="639" />
              <mxPoint x="650" y="560" />
              <mxPoint x="-185" y="560" />
            </Array>
          </mxGeometry>
        </mxCell>
        <mxCell id="XxHLsqreGXPtytjsFbVA-10" style="edgeStyle=orthogonalEdgeStyle;rounded=0;orthogonalLoop=1;jettySize=auto;html=1;exitX=0.5;exitY=1;exitDx=0;exitDy=0;entryX=0.25;entryY=0;entryDx=0;entryDy=0;strokeWidth=2;strokeColor=#FF0000;endArrow=ERzeroToMany;endFill=0;" parent="1" source="XxHLsqreGXPtytjsFbVA-8" target="yGeFEJMInWNtsbP3KPp0-3" edge="1">
          <mxGeometry relative="1" as="geometry" />
        </mxCell>
        <mxCell id="XxHLsqreGXPtytjsFbVA-8" value="&lt;font color=&quot;#000000&quot; style=&quot;font-size: 18px;&quot;&gt;&lt;b&gt;manager&lt;/b&gt;&lt;/font&gt;" style="rhombus;whiteSpace=wrap;html=1;fillColor=#eeeeee;rounded=0;strokeWidth=2;gradientDirection=radial;strokeColor=none;" parent="1" vertex="1">
          <mxGeometry x="700" y="597.5" width="110" height="82.5" as="geometry" />
        </mxCell>
      </root>
    </mxGraphModel>
  </diagram>
</mxfile>
